<svg width="612" height="85" viewBox="0 0 612 85" fill="none" xmlns="http://www.w3.org/2000/svg">
<g id="Subtitle=No">
<g id="Datagrate Logo original">
<path id="Path" d="M0 65.45L33.4 84.75V74V68.15V68.1L14.4 57.15V35.15L9.25 32.2L0 26.85V65.45Z" fill="#85437F"/>
<path id="Path_2" d="M66.2999 32.2L61.1999 35.15V57.15L42.1499 68.1V68.15V74V84.7L75.5499 65.45V26.85L66.2999 32.2Z" fill="#782471"/>
<path id="Path_3" d="M37.7999 0L4.3999 19.3L13.6499 24.65L18.7499 27.6L37.7999 16.6L56.7999 27.6L61.8999 24.65L71.1999 19.3L37.7999 0Z" fill="#8F568A"/>
<path id="Path_4" d="M37.8 43.65V61.9L53.6 52.75V34.5L37.8 43.65Z" fill="#782471"/>
<path id="Shape" d="M21.95 52.75L37.75 61.9V43.65L21.95 34.5V52.75Z" fill="#85437F"/>
<path id="Path_5" d="M37.8 25.35L21.95 34.5L37.8 43.6L53.6 34.5L37.8 25.35Z" fill="#8F568A"/>
</g>
<g id="jetic">
<path d="M121.996 11.74C121.996 13.56 121.58 14.886 120.748 15.718C119.968 16.498 118.668 16.888 116.848 16.888C115.028 16.888 113.702 16.498 112.87 15.718C112.09 14.886 111.7 13.56 111.7 11.74C111.7 9.91998 112.09 8.61998 112.87 7.83998C113.702 7.00798 115.028 6.59198 116.848 6.59198C118.668 6.59198 119.968 7.00798 120.748 7.83998C121.58 8.61998 121.996 9.91998 121.996 11.74ZM101.404 71.176C102.132 71.228 102.886 71.254 103.666 71.254C104.394 71.254 105.278 71.254 106.318 71.254C107.566 71.254 108.58 71.176 109.36 71.02C110.192 70.864 110.868 70.5 111.388 69.928C111.908 69.408 112.272 68.654 112.48 67.666C112.688 66.678 112.792 65.326 112.792 63.61V23.674H120.982V63.61C120.982 66.366 120.722 68.654 120.202 70.474C119.682 72.294 118.85 73.75 117.706 74.842C116.562 75.934 115.08 76.688 113.26 77.104C111.44 77.572 109.204 77.806 106.552 77.806C104.576 77.806 103.094 77.78 102.106 77.728C101.118 77.728 100.416 77.702 100 77.65L101.404 71.176Z" fill="#571459"/>
<path d="M137.261 46.84C137.261 49.024 137.365 50.792 137.573 52.144C137.833 53.496 138.301 54.562 138.977 55.342C139.705 56.122 140.693 56.668 141.941 56.98C143.189 57.24 144.853 57.37 146.933 57.37C148.441 57.37 150.339 57.37 152.627 57.37C154.967 57.37 157.983 57.318 161.675 57.214L160.271 64C158.659 64.052 157.281 64.078 156.137 64.078C154.993 64.13 153.927 64.156 152.939 64.156C152.003 64.156 151.067 64.156 150.131 64.156C149.195 64.156 148.129 64.156 146.933 64.156C143.241 64.156 140.225 63.74 137.885 62.908C135.597 62.024 133.777 60.802 132.425 59.242C131.125 57.63 130.241 55.706 129.773 53.47C129.305 51.182 129.071 48.66 129.071 45.904V41.536C129.071 38.572 129.305 35.92 129.773 33.58C130.293 31.188 131.203 29.186 132.503 27.574C133.855 25.91 135.701 24.636 138.041 23.752C140.433 22.868 143.527 22.426 147.323 22.426C150.807 22.426 153.641 22.842 155.825 23.674C158.061 24.454 159.803 25.546 161.051 26.95C162.351 28.302 163.235 29.888 163.703 31.708C164.171 33.476 164.405 35.322 164.405 37.246V38.416C164.405 40.288 164.301 41.77 164.093 42.862C163.885 43.954 163.547 44.812 163.079 45.436C162.611 46.008 162.013 46.398 161.285 46.606C160.609 46.762 159.777 46.84 158.789 46.84H137.261ZM146.933 28.9C144.853 28.9 143.189 29.056 141.941 29.368C140.693 29.68 139.705 30.278 138.977 31.162C138.301 31.994 137.833 33.164 137.573 34.672C137.365 36.18 137.261 38.13 137.261 40.522H156.683V37.87C156.683 36.154 156.527 34.724 156.215 33.58C155.955 32.384 155.435 31.448 154.655 30.772C153.927 30.096 152.939 29.628 151.691 29.368C150.443 29.056 148.857 28.9 146.933 28.9Z" fill="#571459"/>
<path d="M172.358 14.158L180.548 12.676V23.674H195.368L193.964 30.46H180.548V49.18C180.548 50.896 180.626 52.3 180.782 53.392C180.99 54.484 181.354 55.316 181.874 55.888C182.394 56.46 183.122 56.85 184.058 57.058C185.046 57.266 186.294 57.37 187.802 57.37H194.9L193.496 64H187.88C184.76 64 182.186 63.766 180.158 63.298C178.182 62.83 176.596 62.05 175.4 60.958C174.256 59.814 173.45 58.306 172.982 56.434C172.566 54.562 172.358 52.222 172.358 49.414V14.158Z" fill="#571459"/>
<path d="M201.456 23.674H209.646V64H201.456V23.674ZM210.66 11.74C210.66 13.56 210.244 14.886 209.412 15.718C208.632 16.498 207.332 16.888 205.512 16.888C203.692 16.888 202.366 16.498 201.534 15.718C200.754 14.886 200.364 13.56 200.364 11.74C200.364 9.91998 200.754 8.61998 201.534 7.83998C202.366 7.00798 203.692 6.59198 205.512 6.59198C207.332 6.59198 208.632 7.00798 209.412 7.83998C210.244 8.61998 210.66 9.91998 210.66 11.74Z" fill="#571459"/>
<path d="M236.533 30.304C234.401 30.304 232.659 30.434 231.307 30.694C229.955 30.902 228.889 31.422 228.109 32.254C227.329 33.034 226.783 34.178 226.471 35.686C226.211 37.194 226.081 39.222 226.081 41.77V45.904C226.081 48.452 226.237 50.48 226.549 51.988C226.861 53.496 227.407 54.666 228.187 55.498C229.019 56.278 230.111 56.798 231.463 57.058C232.815 57.266 234.505 57.37 236.533 57.37C239.393 57.37 241.629 57.37 243.241 57.37C244.905 57.318 246.361 57.266 247.609 57.214L246.205 64C244.853 64.052 243.241 64.078 241.369 64.078C239.497 64.13 237.885 64.156 236.533 64.156C233.049 64.156 230.111 63.844 227.719 63.22C225.327 62.596 223.377 61.556 221.869 60.1C220.413 58.644 219.347 56.772 218.671 54.484C218.047 52.144 217.735 49.284 217.735 45.904V41.77C217.735 38.39 218.047 35.556 218.671 33.268C219.347 30.928 220.413 29.03 221.869 27.574C223.377 26.118 225.327 25.078 227.719 24.454C230.111 23.83 233.049 23.518 236.533 23.518C238.041 23.518 239.757 23.544 241.681 23.596C243.657 23.596 245.581 23.648 247.453 23.752L246.049 30.538C243.917 30.434 242.123 30.382 240.667 30.382C239.211 30.33 237.833 30.304 236.533 30.304Z" fill="#571459"/>
</g>
<g id="platform">
<path d="M283.322 61.27C285.87 61.27 287.976 61.036 289.64 60.568C291.304 60.048 292.604 59.216 293.54 58.072C294.476 56.928 295.126 55.446 295.49 53.626C295.854 51.754 296.036 49.466 296.036 46.762V40.99C296.036 37.974 295.776 35.53 295.256 33.658C294.736 31.734 293.956 30.278 292.916 29.29C291.876 28.25 290.524 27.548 288.86 27.184C287.248 26.82 285.35 26.638 283.166 26.638C280.878 26.638 278.902 26.82 277.238 27.184C275.626 27.548 274.3 28.25 273.26 29.29C272.22 30.33 271.44 31.786 270.92 33.658C270.4 35.53 270.14 37.974 270.14 40.99V48.4C270.14 50.948 270.452 53.054 271.076 54.718C271.7 56.382 272.584 57.708 273.728 58.696C274.872 59.632 276.25 60.308 277.862 60.724C279.526 61.088 281.346 61.27 283.322 61.27ZM283.244 22.66C286 22.66 288.444 22.92 290.576 23.44C292.76 23.96 294.58 24.896 296.036 26.248C297.544 27.6 298.688 29.472 299.468 31.864C300.248 34.204 300.638 37.246 300.638 40.99V46.762C300.638 50.298 300.3 53.236 299.624 55.576C298.948 57.916 297.882 59.814 296.426 61.27C295.022 62.726 293.228 63.74 291.044 64.312C288.86 64.936 286.286 65.248 283.322 65.248C280.254 65.248 277.576 64.806 275.288 63.922C273.052 62.986 271.336 61.608 270.14 59.788V77.65H265.616V40.99C265.616 37.402 266.006 34.438 266.786 32.098C267.566 29.706 268.684 27.834 270.14 26.482C271.648 25.078 273.494 24.09 275.678 23.518C277.862 22.946 280.384 22.66 283.244 22.66Z" fill="#4B4F58"/>
<path d="M310.329 6.04602H314.853V64H310.329V6.04602Z" fill="#4B4F58"/>
<path d="M328.514 51.988C328.514 53.392 328.67 54.588 328.982 55.576C329.346 56.564 329.918 57.396 330.698 58.072C331.53 58.748 332.622 59.242 333.974 59.554C335.378 59.866 337.12 60.022 339.2 60.022H352.46V50.662C352.46 48.998 352.174 47.646 351.602 46.606C351.082 45.514 350.302 44.656 349.262 44.032C348.222 43.408 346.922 42.966 345.362 42.706C343.854 42.446 342.112 42.316 340.136 42.316H339.122C335.274 42.316 332.544 42.966 330.932 44.266C329.32 45.514 328.514 47.75 328.514 50.974V51.988ZM356.828 59.554C356.828 61.322 356.49 62.518 355.814 63.142C355.19 63.714 353.916 64 351.992 64H339.2C333.844 64 329.996 63.064 327.656 61.192C325.316 59.32 324.146 56.278 324.146 52.066V50.974C324.146 46.606 325.316 43.434 327.656 41.458C330.048 39.482 333.896 38.494 339.2 38.494C342.788 38.494 345.648 38.832 347.78 39.508C349.912 40.184 351.472 41.12 352.46 42.316V37.636C352.46 35.764 352.278 34.204 351.914 32.956C351.55 31.656 350.9 30.642 349.964 29.914C349.028 29.134 347.728 28.588 346.064 28.276C344.4 27.912 342.294 27.73 339.746 27.73C337.822 27.73 335.794 27.756 333.662 27.808C331.53 27.808 329.606 27.86 327.89 27.964L328.748 23.908C330.204 23.856 331.92 23.83 333.896 23.83C335.872 23.778 337.822 23.752 339.746 23.752C342.866 23.752 345.492 24.012 347.624 24.532C349.808 25 351.576 25.78 352.928 26.872C354.28 27.912 355.268 29.29 355.892 31.006C356.516 32.67 356.828 34.724 356.828 37.168V59.554Z" fill="#4B4F58"/>
<path d="M368.067 13.768L372.591 12.91V23.908H389.049L388.191 27.808H372.591V50.35C372.591 52.274 372.721 53.86 372.981 55.108C373.241 56.356 373.709 57.344 374.385 58.072C375.113 58.8 376.075 59.32 377.271 59.632C378.519 59.892 380.131 60.022 382.107 60.022H388.113L387.255 64H382.107C379.455 64 377.219 63.818 375.399 63.454C373.631 63.038 372.201 62.336 371.109 61.348C370.017 60.308 369.237 58.93 368.769 57.214C368.301 55.446 368.067 53.184 368.067 50.428V13.768Z" fill="#4B4F58"/>
<path d="M414.015 9.86802C411.623 9.86802 409.621 10.05 408.009 10.414C406.449 10.726 405.175 11.402 404.187 12.442C403.251 13.43 402.575 14.86 402.159 16.732C401.795 18.552 401.613 20.944 401.613 23.908H417.447L416.589 27.808H401.613V64H397.089V23.362C397.089 20.086 397.375 17.33 397.947 15.094C398.571 12.858 399.533 11.064 400.833 9.71202C402.185 8.30801 403.901 7.32002 405.981 6.74802C408.113 6.17601 410.687 5.89001 413.703 5.89001C414.691 5.89001 415.731 5.89001 416.823 5.89001C417.915 5.89001 419.267 5.94201 420.879 6.04602L420.021 10.024C418.981 9.97202 417.889 9.94602 416.745 9.94602C415.601 9.89402 414.691 9.86802 414.015 9.86802Z" fill="#4B4F58"/>
<path d="M437.608 22.66C440.676 22.66 443.328 22.972 445.564 23.596C447.8 24.168 449.62 25.156 451.024 26.56C452.48 27.964 453.546 29.862 454.222 32.254C454.898 34.594 455.236 37.506 455.236 40.99V46.918C455.236 50.402 454.898 53.314 454.222 55.654C453.546 57.994 452.48 59.892 451.024 61.348C449.62 62.752 447.8 63.74 445.564 64.312C443.328 64.936 440.676 65.248 437.608 65.248C434.54 65.248 431.888 64.936 429.652 64.312C427.416 63.74 425.57 62.752 424.114 61.348C422.71 59.892 421.67 57.994 420.994 55.654C420.318 53.314 419.98 50.402 419.98 46.918V40.99C419.98 37.506 420.318 34.594 420.994 32.254C421.67 29.914 422.71 28.042 424.114 26.638C425.57 25.182 427.416 24.168 429.652 23.596C431.888 22.972 434.54 22.66 437.608 22.66ZM450.634 40.99C450.634 38.13 450.4 35.764 449.932 33.892C449.464 32.02 448.71 30.564 447.67 29.524C446.63 28.432 445.278 27.678 443.614 27.262C441.95 26.846 439.948 26.638 437.608 26.638C435.216 26.638 433.188 26.846 431.524 27.262C429.912 27.626 428.586 28.354 427.546 29.446C426.506 30.486 425.752 31.942 425.284 33.814C424.816 35.634 424.582 38.026 424.582 40.99V46.918C424.582 49.83 424.816 52.222 425.284 54.094C425.752 55.914 426.506 57.37 427.546 58.462C428.586 59.502 429.912 60.23 431.524 60.646C433.188 61.062 435.216 61.27 437.608 61.27C440 61.27 442.002 61.088 443.614 60.724C445.278 60.308 446.63 59.58 447.67 58.54C448.71 57.448 449.464 55.992 449.932 54.172C450.4 52.3 450.634 49.882 450.634 46.918V40.99Z" fill="#4B4F58"/>
<path d="M464.882 64V37.558C464.882 34.854 465.168 32.618 465.74 30.85C466.364 29.082 467.274 27.678 468.47 26.638C469.666 25.546 471.148 24.792 472.916 24.376C474.684 23.96 476.738 23.752 479.078 23.752C480.794 23.752 482.432 23.752 483.992 23.752C485.552 23.752 486.774 23.778 487.658 23.83L486.8 27.886C486.124 27.834 485.032 27.808 483.524 27.808C482.068 27.756 480.664 27.73 479.312 27.73C477.336 27.73 475.698 27.912 474.398 28.276C473.15 28.588 472.162 29.134 471.434 29.914C470.706 30.694 470.186 31.76 469.874 33.112C469.562 34.412 469.406 36.076 469.406 38.104V64H464.882Z" fill="#4B4F58"/>
<path d="M493.37 64V35.764C493.37 31.032 494.644 27.678 497.192 25.702C499.792 23.674 503.406 22.66 508.034 22.66C511.414 22.66 514.144 23.206 516.224 24.298C518.304 25.39 519.76 26.846 520.592 28.666C521.476 26.846 522.984 25.39 525.116 24.298C527.248 23.206 529.926 22.66 533.15 22.66C535.438 22.66 537.492 22.894 539.312 23.362C541.132 23.778 542.666 24.506 543.914 25.546C545.162 26.534 546.124 27.86 546.8 29.524C547.476 31.188 547.814 33.268 547.814 35.764V64H543.29V36.154C543.29 32.618 542.484 30.148 540.872 28.744C539.312 27.34 536.738 26.638 533.15 26.638C529.614 26.638 527.014 27.314 525.35 28.666C523.738 30.018 522.932 32.41 522.932 35.842V64H518.33V36.154C518.33 32.618 517.498 30.148 515.834 28.744C514.222 27.34 511.622 26.638 508.034 26.638C504.238 26.638 501.586 27.418 500.078 28.978C498.622 30.486 497.894 32.904 497.894 36.232V64H493.37Z" fill="#4B4F58"/>
</g>
</g>
</svg>
